<svg xmlns="http://www.w3.org/2000/svg" style="width:150px" aria-label="No image available; add an image" alt="No image available; add an image" viewBox="0 0 1024 1024" class="icon_21neJ" role="img"><path d="M691 333a252 252 0 00-432 179 252 252 0 00253 253 252 252 0 00179-432zM512 692a180 180 0 110-360 180 180 0 010 360z"></path><path d="M747 277a331 331 0 00-567 235 331 331 0 00567 235 331 331 0 000-470zM512 769a257 257 0 110-514 257 257 0 010 514z"></path><path d="M803 221a410 410 0 00-702 291 410 410 0 00411 411 410 410 0 00291-702zM512 848a336 336 0 110-672 336 336 0 010 672z"></path><path d="M519 27h-8A486 486 0 0026 508v5A486 486 0 10519 27zm-7 900a415 415 0 110-830 415 415 0 010 830zM511 27h-4 4zM1022 513z"></path><path d="M374 512a137 137 0 11275 0 138 138 0 11-275 0zm6 0a132 132 0 10263 0 132 132 0 10-263 0z"></path><path d="M534 512a22 22 0 11-44 0 22 22 0 0144 0z"></path><path d="M0 512a512 512 0 111024 0A512 512 0 110 512zm152-359a507 507 0 000 719v-1a507 507 0 00719 0 507 507 0 000-719 507 507 0 00-719 0v1z"></path></svg>